<?xml version="1.0" encoding="utf-8"?>
<!--Designed by Vexels.com - 2017 All Rights Reserved - https://vexels.com/terms-and-conditions/-->
<svg version="1.1" id="Layer_1" xmlns="http://www.w3.org/2000/svg" xmlns:xlink="http://www.w3.org/1999/xlink" x="0px" y="0px"
	 viewBox="0 0 1200 1200" enable-background="new 0 0 1200 1200" xml:space="preserve">
<g>
	<path opacity="0.1" d="M1133.322,950.283l-35.291-49.302l-58.091-9.544c-11.316-1.859-19.353-4.771-22.41-8.119l-2.493-2.73
		c-3.407-3.731-12.979-6.901-26.238-8.69l-108.956-14.696l-120.762-12.897c-12.592-1.345-26.879-1.18-38.945,0.45l-81.922,11.065
		l-109.995,20.276l-56.081,0.972l-0.002,0l-37.678,0.653c-7.813,0.135-14.747,1.327-18.187,3.125l-34.111,17.831l-81.144,23.963
		c0,0-32.458,35.022-32.458,36.865c0,1.471,12.631,39.035,17.734,54.152c1.293,3.83,10.7,7.168,24.502,8.698l127.266,14.107
		l124.421,14.285h223.597l79.341-9.216h99.176l97.373-21.658l82.652-39.71c4.862-2.336,6.493-5.023,4.631-7.626L1133.322,950.283
		C1133.322,950.283,1133.322,950.283,1133.322,950.283z M508.675,975.333l0.005,0.001l129.534,21.511L508.675,975.333z"/>
	<g>
		<g>
			<path fill="#7C7972" d="M460.73,816.39L226.313,664.06L50,654.042c0,6.395,14.034,169.717,19.704,235.443
				c1.437,16.654,11.889,31.167,27.224,37.818l141.406,61.333l138.246,62.11"/>
			<path fill="#605D58" d="M376.58,1050.747h248.441l88.157-40.071h110.196l108.192-94.167l91.836-172.652
				c5.402-10.156,7.216-21.84,5.146-33.156l-56.91-311.111l-64.546-41.494c-12.572-8.082-21.503-20.743-24.9-35.298l-2.77-11.87
				c-3.785-16.223-14.421-30.007-29.154-37.782l-121.062-63.894L831.389,405.6L729.207,537.835l-92.164,22.039l10.018,82.146
				l-122.217,16.029L460.73,816.39"/>
			<path fill="#99958C" d="M460.73,816.39l-143.927-93.528c-59.298-38.533-127.63-60.913-198.234-64.925L50,654.042
				c0-8.014,36.064-160.285,36.064-160.285l90.16-104.185l37.902-77.526c3.821-7.816,11.527-12.997,20.207-13.585l104.18-7.063
				l122.217-88.157l91.025-48.108c13.407-7.086,29.281-7.803,43.273-1.956l134.18,56.074L831.389,405.6L729.207,537.835
				l-70.125,28.05l-12.021,76.135l-116.207,42.075L460.73,816.39"/>
		</g>
		<path fill="#A8A59E" d="M729.207,209.251L568.922,343.49l-128.228,14.025l-74.366,42.495c-14.156,8.089-31.931,6.015-43.844-5.117
			l-61.246-57.23c-15.546-14.526-6.266-40.602,14.962-42.041l62.313-4.225l122.217-88.157l91.025-48.108
			c13.407-7.086,29.281-7.803,43.273-1.956L729.207,209.251z"/>
		<path fill="#A8A59E" d="M659.082,565.885L525.718,585.89c-14.02,2.103-22.717,16.386-18.148,29.807l23.285,68.398l116.207-42.075
			L659.082,565.885z"/>
		<path fill="#706C63" d="M831.389,405.6l140.249-6.011l39.211,214.357c7.994,43.702-39.789,76.048-77.393,52.39L729.207,537.835
			L831.389,405.6z"/>
		<polygon fill="#706C63" points="647.061,642.02 787.31,768.245 675.111,876.437 578.94,865.946 530.855,684.095 		"/>
		<polygon fill="#514E47" points="675.111,876.437 713.179,1010.676 625.022,1050.747 578.94,865.946 		"/>
		<polygon fill="#7C7972" points="787.31,768.245 931.567,916.508 823.374,1010.676 675.111,876.437 		"/>
	</g>
	<path fill="#514E47" d="M539.691,600"/>
</g>
</svg>
